<?xml version="1.0" encoding="UTF-8"?>
<svg id="Layer_1" data-name="Layer 1" xmlns="http://www.w3.org/2000/svg" viewBox="0 0 752 346">
  <defs>
    <style>
      .cls-1, .cls-2 {
        stroke-width: 0px;
      }

      .cls-1, .cls-3, .cls-4 {
        fill: #000;
      }

      .cls-2 {
        fill: #7fd9ff;
      }

      .cls-3, .cls-4, .cls-5 {
        font-family: HGSSoeiKakupoptai, HGSSoeiKakupoptai;
      }

      .cls-3, .cls-5 {
        font-size: 113.44px;
      }

      .cls-4 {
        font-size: 60.24px;
      }

      .cls-5 {
        fill: #ff9300;
        stroke: #fff;
        stroke-miterlimit: 10;
        stroke-width: 1.14px;
      }

      .cls-6 {
        opacity: .69;
      }
    </style>
  </defs>
  <g>
    <g class="cls-6">
      <g>
        <g>
          <path class="cls-1" d="M65.83,331.01c-.42,0-.84,0-1.26-.02-7.54-.33-12.7-2.17-15.82-5.63-3.28-3.65-5.25-9.15-6.03-16.81-.74-8.41-.5-21.06.72-37.62l3.09-37.12h18.72l-2.33,37.87-1.09,18.6c-.23,4.5.12,9.07,1.05,13.58.54,2.61,1.98,3.97,4.68,4.41.45.06.95.09,1.42.09,2.81,0,4.71-1.19,6.01-3.74,1.1-2.14,1.88-4.73,2.33-7.73.47-2.86.95-11.55,1.43-25.88l1.55-37.21h18.74l-1.16,37.8v9.24c0,7.75-.5,14.73-1.49,20.75-1.27,7.41-3.61,13.54-6.94,18.24-5.33,7.42-13.26,11.17-23.59,11.17Z"/>
          <path class="cls-2" d="M96.66,236.1l-1.09,35.45v9.31c0,7.69-.49,14.48-1.46,20.38-1.22,7.09-3.4,12.85-6.55,17.28-4.89,6.81-12.14,10.21-21.73,10.21-.39,0-.79,0-1.19-.02-6.79-.3-11.52-1.92-14.19-4.87-2.91-3.25-4.73-8.42-5.46-15.51-.73-8.27-.49-20.67.73-37.22l2.91-35.01h14.19l-2.18,35.45-1.09,18.61c-.24,4.73.12,9.46,1.09,14.18.73,3.54,2.91,5.62,6.55,6.2.62.08,1.21.12,1.78.12,3.68,0,6.36-1.67,8.04-4.99,1.21-2.36,2.06-5.16,2.55-8.42.48-2.95.97-11.67,1.46-26.14l1.46-35.01h14.19M101.37,231.53h-23.29l-.18,4.38-1.46,35.01c-.6,17.76-1.09,23.72-1.4,25.6v.03s0,.03,0,.03c-.41,2.75-1.12,5.11-2.09,7.01-.92,1.81-2.03,2.51-3.98,2.51-.35,0-.73-.02-1.12-.07-1.72-.29-2.39-.93-2.73-2.6-.89-4.32-1.23-8.7-1-13.03l1.09-18.58,2.18-35.44.3-4.85h-23.25l-.35,4.19-2.91,35.01c-1.23,16.73-1.47,29.51-.73,38v.03s0,.03,0,.03c.84,8.15,3,14.07,6.6,18.09,3.56,3.95,9.24,6.03,17.39,6.39h.03s.03,0,.03,0c.45.01.89.02,1.32.02,11.11,0,19.67-4.08,25.44-12.11,3.55-4.99,6.01-11.44,7.34-19.17,1.01-6.18,1.52-13.29,1.52-21.16v-9.24l1.09-35.38.15-4.71h0Z"/>
        </g>
        <g>
          <path class="cls-1" d="M132.07,329.67l1.61-25.03c.48-7.32.72-13.54.72-18.46,0-5.8-1.08-6.73-1.09-6.74-.16-.04-.4-.09-.66-.09-.75,0-1.62.38-2.59,1.11-2.14,1.74-3.66,3.02-4.57,3.85-2.08,2.03-3.71,4.1-4.8,6.13-.69,4.57-1.15,9.72-1.37,15.32l-.8,23.91h-19.61l5.86-70.36,18.31,1.76-.21,3.99c4.53-3.38,8.92-5.09,13.09-5.09,5.79,0,10.05,1.62,12.68,4.82,2.68,3.27,4.31,6.77,4.86,10.41.5,3.37.75,7.8.75,13.19l-.77,41.28h-21.42Z"/>
          <path class="cls-2" d="M106.85,261.8l13.83,1.33-.36,7.09c5.58-5.32,10.79-7.98,15.65-7.98,5.09,0,8.73,1.33,10.92,3.99,2.42,2.96,3.88,6.06,4.37,9.31.48,3.25.73,7.53.73,12.85l-.73,38.99h-16.74l1.46-22.6c.48-7.38.73-13.58.73-18.61,0-5.32-.85-8.27-2.55-8.86-.48-.17-.98-.25-1.48-.25-1.26,0-2.59.53-3.97,1.58-2.18,1.77-3.76,3.1-4.73,3.99-2.43,2.37-4.25,4.73-5.46,7.09-.73,4.73-1.22,10.05-1.46,15.95l-.73,21.71h-14.92l5.46-65.58M102.68,256.81l-.38,4.61-5.46,65.58-.41,4.95h24.3l.15-4.42.73-21.71c.22-5.32.65-10.25,1.29-14.64.97-1.7,2.38-3.46,4.2-5.24.86-.79,2.34-2.03,4.41-3.71.12-.09.23-.17.34-.23.15.82.28,2.13.28,4.17,0,4.87-.24,11.03-.72,18.31l-1.46,22.6-.31,4.86h26.1l.08-4.48.73-38.99v-.04s0-.04,0-.04c0-5.5-.26-10.05-.78-13.52-.61-4.07-2.41-7.94-5.35-11.53-3.09-3.76-7.95-5.66-14.45-5.66-3.45,0-6.99,1.01-10.58,3.02l.09-1.69-4.35-.42-13.83-1.33-4.61-.44h0Z"/>
        </g>
        <g>
          <path class="cls-1" d="M154.3,330.11l3.51-69.84,19.42,1.15-1.56,68.69h-21.37ZM167.62,260.54c-3.61,0-6.41-1.17-8.32-3.49-2.03-2.47-3.07-5.64-3.07-9.43,0-4.66,1.03-8.28,3.07-10.75,2.15-2.61,5.07-3.94,8.68-3.94s6.41,1.18,8.32,3.49c2.04,2.49,3.07,5.96,3.07,10.31,0,4.07-1.03,7.39-3.07,9.87-2.15,2.61-5.07,3.94-8.68,3.94Z"/>
          <path class="cls-2" d="M167.98,235.21c2.91,0,5.09.89,6.55,2.66,1.69,2.07,2.55,5.03,2.55,8.86,0,3.54-.85,6.36-2.55,8.42-1.7,2.07-4,3.1-6.91,3.1s-5.09-.89-6.55-2.66c-1.7-2.06-2.55-4.72-2.55-7.98,0-4.13.85-7.24,2.55-9.31,1.69-2.06,4-3.1,6.91-3.1M159.97,262.69l14.92.89-1.46,64.25h-16.74l3.27-65.14M167.98,230.65c-4.27,0-7.88,1.65-10.44,4.77-2.38,2.9-3.59,7-3.59,12.21,0,4.05,1.06,7.52,3.15,10.32l-1.46-.09-.23,4.6-3.27,65.14-.24,4.8h26.01l.1-4.47,1.46-64.25.1-4.4-2.48-.15c.34-.34.67-.69.98-1.07,2.38-2.9,3.59-6.71,3.59-11.32,0-4.9-1.2-8.85-3.58-11.76-1.63-1.98-4.69-4.33-10.09-4.33h0Z"/>
        </g>
        <g>
          <path class="cls-1" d="M178.41,261.08l19.1-1.74,5.01,28.36,9.7-28.27,20.8,1.15-1.04,2.89c-5.31,14.69-9.34,26.58-11.97,35.33-1.93,5.88-4.61,15.52-7.98,28.71l-.43,1.67-21.54.54-11.66-68.64Z"/>
          <path class="cls-2" d="M213.83,261.8l16.01.89c-5.34,14.78-9.34,26.59-12.01,35.45-1.94,5.91-4.61,15.51-8.01,28.8l-17.83.44-10.92-64.25,14.56-1.33,6.19,35.01,12.01-35.01M199.4,256.87l-4.18.38-14.56,1.33-4.92.45.83,4.87,10.92,64.25.66,3.9,3.96-.1,17.83-.44,3.46-.09.86-3.35c3.35-13.14,6.02-22.73,7.92-28.51l.02-.06.02-.06c2.62-8.71,6.64-20.56,11.93-35.21l2.09-5.78-6.13-.34-16.01-.89-3.45-.19-1.12,3.27-6.27,18.27-3.11-17.58-.73-4.14h0Z"/>
        </g>
        <g>
          <path class="cls-1" d="M253.24,331.05c-1.6,0-3.27-.18-4.96-.55-4.9-.99-8.79-3.37-11.54-7.07-2.67-3.57-4.29-8.13-4.81-13.55-.74-6.34-.74-11.92.02-16.54,2.03-12.4,5.57-21.06,10.8-26.47,3.69-3.85,7.74-6.3,12.05-7.29,1.67-.35,3.27-.53,4.78-.53,4.29,0,8.12,1.38,11.38,4.1,5.38,4.59,8.1,11.29,8.1,19.92,0,5.79-.76,11.51-2.26,17l-.43,1.57-8.49.54,8.36,10.81-.74,1.32c-4.36,7.81-9.26,12.91-14.56,15.17-2.39,1.04-4.99,1.57-7.69,1.57ZM248.98,303.4c-.14,1.97.03,3.86.53,5.66.55,1.99,1.44,3.25,2.75,3.84.98.5,1.85.72,2.75.72,1.29,0,2.69-.48,4.14-1.44l.09-.06.1-.05c.61-.32,2.46-1.71,6.44-7.66l1.45-2.17-18.25,1.17ZM257.95,274.94c-1.81,0-3.41,2.91-4.2,4.64-.52,1.11-1.29,3.32-2.21,7.76l9.35-.29c.28-2.97.34-5.26.16-6.82v-.1c-.19-2.57-.8-4.31-1.7-4.78-.51-.27-.99-.4-1.4-.4Z"/>
          <path class="cls-2" d="M259.59,261.33c3.76,0,7.07,1.19,9.92,3.57,4.85,4.14,7.28,10.19,7.28,18.17,0,5.62-.73,11.08-2.18,16.4l-27.66,1.77c-.49,2.96-.36,5.76.36,8.42.73,2.66,2.06,4.43,4,5.32,1.21.62,2.45.93,3.7.93,1.76,0,3.55-.6,5.4-1.81,1.69-.89,4.12-3.69,7.28-8.42l5.82,7.53c-4.13,7.39-8.61,12.12-13.46,14.18-2.13.92-4.39,1.38-6.8,1.38-1.44,0-2.94-.17-4.48-.5-4.37-.89-7.77-2.95-10.19-6.2-2.43-3.25-3.88-7.38-4.37-12.41-.73-6.2-.73-11.52,0-15.95,1.94-11.81,5.33-20.23,10.19-25.26,3.39-3.54,7.03-5.76,10.92-6.65,1.49-.31,2.91-.47,4.28-.47M248.76,289.72l14.19-.44c.48-4.13.6-7.24.36-9.31-.24-3.54-1.22-5.76-2.91-6.65-.85-.44-1.67-.66-2.46-.66-2.37,0-4.46,1.99-6.27,5.98-.97,2.07-1.94,5.76-2.91,11.08M259.59,256.76h0c-1.68,0-3.43.19-5.22.57h-.04s-.04.02-.04.02c-4.75,1.08-9.19,3.76-13.2,7.94-5.55,5.75-9.28,14.81-11.4,27.68-.79,4.82-.8,10.6-.03,17.18.57,5.82,2.33,10.76,5.25,14.66,3.09,4.15,7.43,6.82,12.91,7.94,1.84.39,3.66.59,5.42.59,3.02,0,5.92-.59,8.62-1.76,5.83-2.48,10.95-7.76,15.63-16.14l1.47-2.63-1.85-2.39-4.81-6.22,2.58-.17,3.25-.21.86-3.14c1.56-5.69,2.35-11.61,2.35-17.6,0-9.33-2.99-16.61-8.88-21.64-3.71-3.11-8.04-4.67-12.88-4.67h0ZM254.42,284.97c.62-2.5,1.1-3.77,1.39-4.39v-.02s.02-.02.02-.02c1.09-2.39,1.93-3.11,2.18-3.28.03.01.07.02.11.04.14.24.5,1.04.63,2.99v.1s.02.1.02.1c.09.79.14,2.13,0,4.34l-4.36.14h0ZM251.24,305.54l11.5-.74c-3.06,4.36-4.32,5.16-4.46,5.24l-.2.1-.18.12c-1.08.71-2.05,1.06-2.89,1.06-.53,0-1.06-.14-1.63-.43l-.09-.04-.09-.04c-.24-.11-.96-.44-1.49-2.37-.26-.95-.42-1.92-.47-2.91h0Z"/>
        </g>
        <g>
          <path class="cls-1" d="M284.11,259.96h18.83l-.91,9.44c.88-1.08,1.73-2.06,2.54-2.94,3.8-4.29,7.37-6.57,10.91-6.93.35-.04.74-.07,1.11-.07,2.71,0,5.16,1.22,7.07,3.54,2.25,2.75,3.52,6.77,3.79,11.97.25,4.32-.38,10.33-1.86,17.84l-.38,1.9-18.97-.59.69-2.75c.61-2.41.76-3.87.76-4.71-.28.29-.62.69-1.03,1.25l-6.91,10.94-1.53,30.25-19.2,1.17,5.07-70.31Z"/>
          <path class="cls-2" d="M316.6,261.75c2.05,0,3.82.9,5.31,2.71,1.94,2.37,3.03,5.91,3.27,10.63.24,4.14-.36,9.9-1.82,17.28l-14.19-.44c.97-3.84,1.09-6.35.36-7.53-.32-.49-.71-.74-1.17-.74-.92,0-2.1.98-3.56,2.95l-7.28,11.52-1.46,28.8-14.56.89,4.73-65.58h14.19l-1.46,15.07c2.67-3.84,5.09-6.94,7.28-9.31,3.39-3.84,6.55-5.91,9.46-6.2.3-.04.59-.05.88-.05M316.6,257.18c-.45,0-.92.03-1.38.08-3.42.36-6.78,2.16-10.24,5.48v-.05s.49-5.01.49-5.01h-23.47l-.31,4.24-4.73,65.58-.38,5.21,5.21-.32,14.56-.89,4.08-.25.21-4.08,1.4-27.61,2.03-3.22,4.97.16,14.19.44,3.87.12.75-3.8c1.54-7.82,2.16-13.84,1.9-18.43-.3-5.75-1.7-10.09-4.3-13.27-2.37-2.87-5.42-4.39-8.84-4.39h0Z"/>
        </g>
        <g>
          <path class="cls-1" d="M348.83,330.55c-4.79,0-11.47-1.07-19.84-3.17l-2.11-.53,4.29-21.48,2.69,1.37c2.81,1.43,5.9,2.73,9.17,3.87l.13.05.13.06c.67.33,2.03.79,4.72,1.11.29.04.48.06.65.06.29,0,.43-.05.46-.07h0s.04-.05.1-.21c.18-.52.68-1.93-1-4.39-1.63-1.42-3.26-2.83-4.89-4.25-5.48-4.77-8.8-10.44-9.85-16.86-1.32-7.72.19-14.3,4.49-19.54,2.75-3.34,7.09-5.69,12.92-6.98,1.92-.41,3.84-.62,5.72-.62,2.51,0,5.01.37,7.44,1.11,5.66,1.73,9.24,5.56,10.65,11.4.82,3.31.7,7.27-.35,12.1l-.41,1.86-17.65-.58.08-2.29c.18-5.26-.85-6.92-1.31-7.4-.21-.21-.5-.43-1.14-.43-1.81,0-2.33,3.15-2.45,5.79-.19,2.54,1.5,5.33,5.03,8.36,4.3,3.69,7.27,6.72,9.1,9.26,4.51,6.14,5.86,13.05,4,20.5-1.16,4.59-4.45,7.95-9.77,10-3.15,1.27-6.86,1.92-11.01,1.92Z"/>
          <path class="cls-2" d="M356.6,261.23c2.3,0,4.56.34,6.78,1.01,4.85,1.48,7.88,4.73,9.1,9.75.73,2.96.6,6.65-.36,11.08l-13.46-.44c.24-6.79-1.34-10.19-4.73-10.19-2.91,0-4.49,2.66-4.73,7.98-.24,3.25,1.69,6.65,5.82,10.19,4.12,3.54,7.03,6.5,8.73,8.86,4.12,5.62,5.33,11.82,3.64,18.61-.97,3.84-3.76,6.65-8.37,8.42-2.91,1.18-6.31,1.77-10.19,1.77-4.61,0-11.04-1.03-19.29-3.1l3.27-16.4c2.91,1.48,6.06,2.81,9.46,3.99,1.21.6,3.03,1.04,5.46,1.33.33.05.63.08.92.08,1.41,0,2.32-.61,2.72-1.85.73-2.06.24-4.28-1.46-6.65-1.7-1.47-3.4-2.95-5.09-4.43-5.09-4.43-8.13-9.6-9.1-15.51-1.22-7.09.12-13,4-17.72,2.42-2.95,6.31-5.02,11.64-6.2,1.76-.38,3.51-.57,5.23-.57M356.6,256.66c-2.04,0-4.12.23-6.19.67-6.36,1.41-11.14,4.02-14.21,7.77-4.75,5.78-6.42,12.98-4.97,21.4,1.13,6.92,4.7,13.05,10.6,18.18,1.54,1.35,3.09,2.7,4.65,4.05.12.2.24.4.34.61-1.55-.27-2.26-.55-2.53-.68l-.25-.13-.27-.09c-3.17-1.1-6.16-2.36-8.88-3.74l-5.37-2.73-1.18,5.91-3.27,16.4-.85,4.27,4.22,1.06c8.68,2.18,15.35,3.24,20.4,3.24,4.43,0,8.42-.7,11.87-2.09,7.51-2.9,10.19-7.88,11.12-11.55,2.03-8.16.56-15.7-4.38-22.44-1.9-2.64-4.98-5.79-9.39-9.58l.46.02,13.46.44,3.8.13.81-3.72c1.13-5.18,1.24-9.48.34-13.14-1.59-6.56-5.81-11.07-12.2-13.03-2.65-.8-5.38-1.21-8.12-1.21h0ZM354.09,282.45c-.26-.61-.38-1.18-.34-1.69v-.07s0-.07,0-.07c.04-.81.11-1.46.19-1.98.12.87.2,2.1.14,3.81h0Z"/>
        </g>
        <g>
          <path class="cls-1" d="M390.38,330.64c-4.07,0-7.76-2.12-10.98-6.29-2.53-3.42-3.75-8.5-3.75-15.57,0-5.68,1.32-10.97,3.92-15.72,3.57-6.53,8.26-10.44,13.95-11.64l-9.65-10.34,1.54-1.56c4.67-4.74,7.9-7.43,10.14-8.45,2.98-1.45,6-2.2,8.93-2.2.99,0,1.99.08,2.96.25,5.56,1.01,9.77,4.08,12.53,9.13,1.35,2.65,2.29,6.03,2.81,10.11.5,4.25.62,9.59.38,15.89l-1.55,34.43-21.6,1.17,1.05-3.84c-2.68,2.07-4.91,3.39-6.75,4-1.34.43-2.65.64-3.93.64ZM401.59,299.09c-.08,0-.87.04-3.18,1.44-2.31,1.41-3.63,3.48-4.02,6.33-.16,1.55.1,2.71.78,3.37.26.24.57.36,1,.36.18,0,.38-.02.59-.07l.12-.02c1.54-.23,3.15-.98,4.78-2.22l.09-.07c3.76-2.58,3.53-5.05,2.84-6.93-1.04-1.94-2.15-2.19-3-2.19ZM398.9,281.32c1.22.18,2.48.49,3.78.92,1.15.4,2.36,1.12,3.66,2.16.33-4.19.14-5.84-.03-6.48-.28-.89-.58-.89-.93-.89-.23,0-.63.04-1.24.25-.66.23-2.21,1.08-5.24,4.05Z"/>
          <path class="cls-2" d="M404.48,261.14c.86,0,1.72.07,2.57.22,4.85.89,8.49,3.54,10.92,7.98,1.21,2.37,2.06,5.47,2.55,9.31.48,4.14.6,9.31.36,15.51l-1.46,32.35-16.37.89,2.18-7.98c-5.09,4.73-8.98,7.53-11.64,8.42-1.1.35-2.17.53-3.21.53-3.34,0-6.39-1.8-9.17-5.4-2.18-2.95-3.27-7.68-3.27-14.18,0-5.32,1.21-10.19,3.64-14.62,3.39-6.2,7.76-9.75,13.1-10.63.54-.07,1.1-.11,1.68-.11,1.73,0,3.59.33,5.6.99,1.69.6,3.76,2.22,6.19,4.87.73-6.2.85-10.19.36-11.96-.53-1.72-1.57-2.58-3.13-2.58-.58,0-1.24.12-1.96.36-1.7.6-4.13,2.51-7.28,5.76l-9.1-9.75c4.37-4.43,7.52-7.09,9.46-7.98,2.73-1.33,5.39-1.99,7.98-1.99M396.18,312.87c.33,0,.68-.04,1.05-.11,1.94-.29,3.88-1.18,5.82-2.66,3.88-2.66,5.09-5.91,3.64-9.75-1.22-2.36-2.91-3.54-5.09-3.54-.97,0-2.43.6-4.37,1.77-2.91,1.77-4.61,4.43-5.09,7.98-.24,2.37.24,4.14,1.46,5.32.72.66,1.59,1,2.59,1M404.48,256.57c-3.27,0-6.61.82-9.93,2.43-1.72.79-4.5,2.54-10.76,8.9l-3.08,3.12,2.99,3.2,5.69,6.1c-4.73,2.01-8.69,5.91-11.82,11.63-2.79,5.09-4.2,10.74-4.2,16.82,0,7.58,1.36,13.11,4.17,16.9l.03.04.03.04c3.67,4.76,7.97,7.18,12.78,7.18,1.51,0,3.06-.25,4.6-.74h.02s.02-.02.02-.02c.71-.23,1.45-.55,2.24-.95l-.3,1.08,6.33-.34,16.37-.89,4.13-.22.19-4.13,1.46-32.35c.25-6.54.12-11.84-.39-16.24-.57-4.46-1.55-7.99-3.02-10.86l-.03-.06-.03-.06c-3.11-5.68-7.85-9.13-14.1-10.28-1.14-.2-2.27-.29-3.39-.29h0ZM403.67,280.16c.21-.15.39-.28.54-.38,0,.18,0,.38,0,.6-.19-.08-.37-.16-.55-.22h0ZM396.67,307.1c.31-2.14,1.22-3.57,2.93-4.62,1.23-.75,1.89-1.01,2.14-1.09.17.04.41.21.77.84.37,1.02.58,2.3-2.05,4.1l-.09.06-.09.07c-1.27.97-2.48,1.56-3.61,1.75-.03-.24-.05-.61,0-1.12h0Z"/>
        </g>
        <g>
          <path class="cls-1" d="M423.21,329.67l4.6-96.58,18.77,2.34-.13,2.14c-1.21,19.37-1.94,33.06-2.18,40.7-.24,7.91-.24,24.42,0,49.09l.02,2.31h-21.08Z"/>
          <path class="cls-2" d="M429.97,235.66l14.19,1.77c-1.22,19.5-1.94,33.09-2.18,40.77-.24,7.98-.24,24.37,0,49.19h-16.37l4.37-91.73M425.65,230.51l-.23,4.93-4.37,91.73-.23,4.79h25.78l-.05-4.61c-.24-24.64-.24-41.12,0-49,.24-7.6.97-21.26,2.18-40.62l.27-4.29-4.26-.53-14.19-1.77-4.9-.61h0Z"/>
        </g>
      </g>
    </g>
    <g class="cls-6">
      <g>
        <g>
          <path class="cls-1" d="M507.31,330.11l-1.41-19.8-17.43,4.32-3,15.09-21.77-.56.57-2.69c1.69-7.98,4.32-18.88,8.03-33.33,3.4-13.31,9.42-32.17,17.89-56.03l.4-1.14,1.17-.31c3.41-.89,6.04-1.5,7.82-1.81.98-.17,2.06-.25,3.21-.25s2.34.08,3.64.23c3.83.39,6.8,3.59,8.81,9.51,1.5,4.27,3.2,12.52,5.19,25.19l9.12,61.57h-22.24ZM494.19,290.89l9.09-.28c-.61-6.1-1.14-10.92-1.57-14.34-.38-2.48-.92-5.5-1.6-9.02l-5.92,23.64Z"/>
          <path class="cls-2" d="M502.79,235.88c1.03,0,2.15.07,3.37.22,2.91.3,5.21,2.96,6.91,7.98,1.46,4.14,3.15,12.41,5.09,24.81l8.73,58.94h-17.47l-1.46-20.38-21.47,5.32-2.91,14.62-17.1-.44c1.69-7.98,4.37-19.05,8.01-33.23,3.39-13.29,9.34-31.9,17.83-55.83,3.39-.89,5.94-1.47,7.64-1.77.85-.15,1.79-.22,2.82-.22M491.24,293.26l14.56-.44c-.73-7.38-1.34-13-1.82-16.84-.73-4.72-1.94-11.08-3.64-19.05l-9.1,36.34M502.79,231.31c-1.28,0-2.49.1-3.59.28-1.86.33-4.55.95-8.02,1.85l-2.34.61-.81,2.28c-8.49,23.93-14.53,42.85-17.95,56.23-3.71,14.46-6.34,25.39-8.05,33.42l-1.14,5.37,5.49.14,17.1.44,3.85.1.75-3.77,2.34-11.78,13.38-3.32,1.07,14.97.3,4.24h27.02l-.78-5.24-8.73-58.94c-2.01-12.83-3.74-21.2-5.29-25.63-2.31-6.81-5.92-10.52-10.72-11.03-1.38-.16-2.68-.25-3.88-.25h0ZM497.14,288.51l2.53-10.11c.32,2.69.68,6.03,1.09,10l-3.62.11h0Z"/>
        </g>
        <g>
          <path class="cls-1" d="M533.51,259.96h18.83l-.91,9.44c.88-1.08,1.73-2.06,2.54-2.94,3.79-4.29,7.37-6.57,10.91-6.93.35-.04.74-.07,1.11-.07,2.75,0,5.13,1.19,7.07,3.54,2.25,2.75,3.52,6.77,3.79,11.97.25,4.32-.38,10.32-1.86,17.84l-.38,1.9-18.97-.59.69-2.75c.61-2.41.76-3.87.76-4.71-.28.29-.62.69-1.03,1.25l-6.91,10.94-1.53,30.25-19.2,1.17,5.07-70.31Z"/>
          <path class="cls-2" d="M565.99,261.75c2.05,0,3.82.9,5.31,2.71,1.94,2.37,3.03,5.91,3.27,10.63.24,4.14-.36,9.9-1.82,17.28l-14.19-.44c.97-3.84,1.09-6.35.36-7.53-.32-.49-.71-.74-1.17-.74-.92,0-2.1.98-3.56,2.95l-7.28,11.52-1.46,28.8-14.56.89,4.73-65.58h14.19l-1.46,15.07c2.67-3.84,5.09-6.94,7.28-9.31,3.39-3.84,6.55-5.91,9.46-6.2.3-.04.59-.05.88-.05M565.99,257.18c-.45,0-.92.03-1.39.08-3.42.36-6.78,2.16-10.24,5.48v-.05s.49-5.01.49-5.01h-23.47l-.31,4.24-4.73,65.58-.38,5.21,5.21-.32,14.56-.89,4.08-.25.21-4.08,1.4-27.61,2.03-3.22,4.97.16,14.19.44,3.87.12.75-3.8c1.54-7.82,2.16-13.84,1.9-18.43-.3-5.75-1.7-10.1-4.3-13.27-2.37-2.87-5.42-4.39-8.84-4.39h0Z"/>
        </g>
        <g>
          <path class="cls-1" d="M581.54,259.96h18.83l-.91,9.44c.88-1.08,1.73-2.06,2.54-2.94,3.8-4.29,7.37-6.57,10.91-6.93.35-.04.74-.07,1.11-.07,2.75,0,5.13,1.19,7.07,3.54,2.25,2.75,3.52,6.77,3.79,11.97.25,4.32-.38,10.32-1.86,17.84l-.38,1.9-18.97-.59.69-2.75c.61-2.41.76-3.87.76-4.71-.27.29-.62.69-1.03,1.25l-6.91,10.94-1.53,30.25-19.2,1.17,5.07-70.31Z"/>
          <path class="cls-2" d="M614.02,261.75c2.05,0,3.82.9,5.31,2.71,1.94,2.37,3.03,5.91,3.27,10.63.24,4.14-.36,9.9-1.82,17.28l-14.19-.44c.97-3.84,1.09-6.35.36-7.53-.32-.49-.71-.74-1.17-.74-.92,0-2.1.98-3.56,2.95l-7.28,11.52-1.46,28.8-14.56.89,4.73-65.58h14.19l-1.46,15.07c2.67-3.84,5.09-6.94,7.28-9.31,3.39-3.84,6.55-5.91,9.46-6.2.3-.04.59-.05.88-.05M614.02,257.18c-.45,0-.92.03-1.38.08-3.42.36-6.78,2.16-10.24,5.48v-.05s.49-5.01.49-5.01h-23.47l-.31,4.24-4.73,65.58-.38,5.21,5.21-.32,14.56-.89,4.08-.25.21-4.08,1.4-27.61,2.03-3.22,4.97.16,14.19.44,3.88.12.75-3.8c1.54-7.82,2.16-13.84,1.9-18.43-.3-5.75-1.7-10.1-4.3-13.27-2.37-2.87-5.42-4.39-8.84-4.39h0Z"/>
        </g>
        <g>
          <path class="cls-1" d="M647.64,331.25c-1.21,0-2.42-.09-3.57-.28-6.73-.98-11.81-4.34-15.08-9.97-3.41-5.75-4.71-14.16-3.94-25.67.76-10.46,3.72-19.21,8.82-26.03,4.53-6.16,10.87-9.45,18.84-9.78.52-.03,1.06-.04,1.59-.04,7.54,0,17.26,3.24,20.75,18.66,1.26,6.47,1.52,13.4.77,20.68-.76,7.06-2.56,13.3-5.35,18.56-3.44,6.12-7.89,10.19-13.24,12.15-3.4,1.15-6.6,1.72-9.59,1.72ZM651.92,276.35c-.48,0-1.93,0-3.69,3-3.38,5.77-4.75,13.68-4.06,23.5.41,6.76,1.93,10.92,4.29,11.74.41.14.79.21,1.13.21,1.94,0,3.46-2.57,4.4-4.73.76-1.68,1.78-5.49,2.36-14.31.23-4.58.23-8.97,0-13.01-.13-2.07-.62-4.76-2.19-5.71-.79-.45-1.57-.7-2.25-.7Z"/>
          <path class="cls-2" d="M654.29,261.76c9.81,0,15.98,5.63,18.52,16.88,1.21,6.2,1.46,12.85.73,19.94-.73,6.8-2.43,12.71-5.09,17.72-3.16,5.62-7.16,9.31-12.01,11.08-3.12,1.05-6.06,1.58-8.81,1.58-1.1,0-2.16-.08-3.2-.25-6.07-.89-10.55-3.84-13.46-8.86-3.16-5.32-4.37-13.44-3.64-24.37.73-10.04,3.51-18.31,8.37-24.81,4.12-5.61,9.82-8.56,17.1-8.86.51-.03,1-.04,1.49-.04M649.59,317.09c2.56,0,4.73-2.03,6.49-6.1,1.21-2.66,2.06-7.68,2.55-15.07.24-4.72.24-9.15,0-13.29-.24-3.84-1.34-6.35-3.27-7.53-1.21-.69-2.36-1.03-3.44-1.03-2.16,0-4.05,1.38-5.66,4.13-3.64,6.2-5.09,14.48-4.37,24.81.48,7.98,2.42,12.56,5.82,13.74.65.23,1.27.34,1.88.34M654.3,257.19h0c-.56,0-1.13.02-1.71.05-8.68.36-15.6,3.97-20.56,10.72-5.34,7.15-8.46,16.31-9.24,27.19-.8,12.02.6,20.85,4.27,27.03,3.6,6.22,9.23,9.95,16.7,11.05,1.26.2,2.57.3,3.9.3,3.23,0,6.69-.61,10.27-1.82l.05-.02.05-.02c5.88-2.15,10.73-6.57,14.42-13.13l.03-.05.03-.05c2.93-5.52,4.82-12.04,5.6-19.38.77-7.52.51-14.68-.79-21.3v-.07s-.03-.07-.03-.07c-3.82-16.89-14.6-20.44-22.98-20.44h0ZM649.59,312.52s-.15,0-.37-.08c-.03-.01-2.23-.87-2.77-9.7-.66-9.4.6-16.86,3.75-22.23.8-1.37,1.48-1.88,1.72-1.88.09,0,.43.03,1.08.38.27.21.9,1.23,1.07,3.9.23,3.92.23,8.21,0,12.74-.59,8.89-1.6,12.24-2.14,13.44l-.02.04-.02.04c-1.19,2.73-2.17,3.35-2.3,3.35h0Z"/>
        </g>
        <g>
          <path class="cls-1" d="M680.88,329.61l-5.05-66.71,18.73-2.34,1.73,23.18,6.43-23.79h9.03c5.79,0,9.31,3.41,9.92,9.6l.65,9.27.73-2.22,4.82-16.64h17.65l-15.18,70.15h-19.94l-2.01-22.7-6.56,22.74-20.93-.54Z"/>
          <path class="cls-2" d="M742.68,262.24l-14.19,65.58h-16.01l-2.91-32.79-9.46,32.79-17.1-.44-4.73-62.48,14.19-1.77,2.55,34.12,9.46-35.01h7.28c4.61,0,7.15,2.51,7.64,7.53l1.46,20.83,4.37-13.29,4.37-15.07h13.1M748.35,257.68h-22.2l-.96,3.3-1.69,5.81c-1.43-5.75-5.68-9.11-11.76-9.11h-10.78l-.91,3.38-2.48,9.19-.56-7.46-.36-4.79-4.76.6-14.19,1.77-4.32.54.33,4.34,4.73,62.48.31,4.12,4.13.11,17.1.44,3.53.09.98-3.39,2.68-9.3.75,8.44.37,4.16h23.88l.78-3.6,14.19-65.58,1.2-5.54h0Z"/>
        </g>
      </g>
    </g>
    <g class="cls-6">
      <g>
        <g>
          <polygon class="cls-1" points="262.35 182.1 256.78 184.42 255.47 170.19 261.7 168.69 261.3 148.15 273.39 146.86 274.03 165.89 280.28 164.64 281.8 175.8 274.9 177.67 277.02 199.18 264.07 201.78 262.35 182.1"/>
          <path class="cls-2" d="M271.19,149.39l.65,19.27,6.51-1.31.92,6.76-6.83,1.85,2.11,21.37-8.42,1.69-1.76-20.25-5.59,2.32-.85-9.17,6.1-1.47-.39-20.28,7.56-.8M275.59,144.33l-4.88.52-7.56.8-4.17.44.08,4.19.32,16.61-2.52.61-3.85.93.37,3.94.85,9.17.57,6.18,5.55-2.31,1.22,14.03.44,5.09,5.01-1.01,8.42-1.69,4.05-.82-.41-4.11-1.73-17.53,3.1-.84,3.87-1.05-.54-3.97-.92-6.76-.65-4.83-4.77.96-1.22.25-.47-13.88-.16-4.91h0Z"/>
        </g>
        <g>
          <path class="cls-1" d="M293.15,196.73c-3.65,0-6.62-1.38-8.82-4.1-2.36-2.85-3.72-7.34-4.16-13.72-.36-5.78.61-10.88,2.89-15.17,2.07-3.97,5.39-6.54,9.84-7.62,1.24-.32,2.46-.49,3.61-.49,3.43,0,8.09,1.5,10.8,8.64,1.17,3.41,1.82,7.14,1.95,11.15.11,3.93-.41,7.53-1.55,10.71-1.46,3.81-3.64,6.59-6.51,8.3-2.54,1.44-4.99,2.2-7.3,2.29-.24.01-.5.02-.76.02ZM294.43,167.1c-.48,0-.89.76-1.14,1.4-1.29,3.21-1.43,7.31-.41,12.2.76,3.82,1.79,4.77,2.12,4.82.06,0,.1.01.15.01.43,0,.95-.89,1.33-2.27.22-.74.52-2.65.19-7.43-.2-2.38-.51-4.65-.91-6.71-.29-1.42-.7-1.87-.83-1.92-.2-.07-.39-.09-.5-.09Z"/>
          <path class="cls-2" d="M296.52,157.91c3.96,0,6.85,2.39,8.66,7.16,1.08,3.14,1.68,6.61,1.81,10.41.1,3.66-.37,6.94-1.42,9.87-1.26,3.29-3.1,5.66-5.53,7.1-2.19,1.24-4.27,1.9-6.22,1.97-.23.01-.45.02-.68.02-2.94,0-5.28-1.08-7.04-3.26-2.04-2.46-3.26-6.61-3.66-12.44-.33-5.36.54-10.01,2.63-13.94,1.77-3.39,4.56-5.55,8.37-6.47,1.09-.28,2.11-.42,3.07-.42M295.15,187.82c1.63,0,2.81-1.32,3.53-3.95.45-1.53.53-4.26.26-8.2-.21-2.51-.53-4.84-.95-7-.4-1.99-1.16-3.2-2.26-3.62-.46-.16-.9-.24-1.3-.24-1.41,0-2.5.94-3.26,2.83-1.47,3.65-1.65,8.16-.53,13.52.82,4.15,2.17,6.35,4.05,6.61.16.02.31.03.46.03M296.52,153.34h0c-1.33,0-2.74.19-4.18.56-5.04,1.24-8.95,4.28-11.31,8.79-2.47,4.64-3.53,10.15-3.14,16.34.47,6.89,2,11.8,4.68,15.05,2.62,3.23,6.28,4.93,10.58,4.93.29,0,.59,0,.89-.02,2.67-.11,5.45-.97,8.26-2.56l.05-.03.04-.03c3.32-1.98,5.83-5.14,7.46-9.39l.02-.05.02-.05c1.23-3.45,1.8-7.33,1.68-11.53-.14-4.26-.83-8.22-2.05-11.77l-.02-.07-.03-.07c-3.34-8.8-9.53-10.11-12.93-10.11h0Z"/>
        </g>
      </g>
    </g>
  </g>
  <text class="cls-5" transform="translate(50.7 200.61) rotate(-35.02) scale(.82 1)"><tspan x="0" y="0">W</tspan></text>
  <text class="cls-5" transform="translate(99.74 160.62) rotate(-27.92) scale(.82 1)"><tspan x="0" y="0">E</tspan></text>
  <text class="cls-5" transform="translate(136.23 137.07) rotate(-6.72) scale(.82 1)"><tspan x="0" y="0">L</tspan></text>
  <text class="cls-5" transform="translate(177.31 131.77) rotate(-3.33) scale(.82 1)"><tspan x="0" y="0">C</tspan></text>
  <text class="cls-5" transform="translate(239.19 127.72) rotate(-7.7) scale(.82 1)"><tspan x="0" y="0">O</tspan></text>
  <text class="cls-5" transform="translate(296.49 123.54) rotate(-4.16) scale(.82 1)"><tspan x="0" y="0">M</tspan></text>
  <text class="cls-5" transform="translate(376.85 114.71) rotate(-18.28) scale(.82 1)"><tspan x="0" y="0">E</tspan></text>
  <text class="cls-5" transform="translate(427.33 97.31) rotate(-10.81) scale(.82 1)"><tspan x="0" y="0">!</tspan></text>
  <text class="cls-3" transform="translate(41.62 327.61) scale(.82 1)"><tspan x="0" y="0">Universal</tspan></text>
  <text class="cls-3" transform="translate(464.59 327.61) scale(.82 1)"><tspan x="0" y="0">Arrow</tspan></text>
  <text class="cls-4" transform="translate(259.97 200.67) rotate(-11.38) scale(.83 1) skewX(-4.39)"><tspan x="0" y="0">to</tspan></text>
</svg>