<?xml version="1.0" encoding="UTF-8"?>
<svg id="Layer_1" data-name="Layer 1" xmlns="http://www.w3.org/2000/svg" viewBox="0 0 1209 171">
  <defs>
    <style>
      .cls-1 {
        fill: #ff9300;
        stroke: #fff;
        stroke-miterlimit: 10;
      }

      .cls-1, .cls-2, .cls-3 {
        font-family: HGSSoeiKakupoptai, HGSSoeiKakupoptai;
      }

      .cls-1, .cls-3 {
        font-size: 90px;
      }

      .cls-4, .cls-2, .cls-3 {
        fill: #000;
      }

      .cls-4, .cls-5 {
        stroke-width: 0px;
      }

      .cls-2 {
        font-size: 48px;
      }

      .cls-5 {
        fill: #7fd9ff;
      }

      .cls-6 {
        opacity: .69;
      }
    </style>
  </defs>
  <g class="cls-6">
    <g>
      <g>
        <path class="cls-4" d="M548.23,91.73c-.4,0-.8,0-1.2-.01-7.15-.26-12.05-1.69-15.01-4.39-3.16-2.9-5.15-7.45-5.91-13.54-.72-6.71-.48-16.78.7-29.96l3-29.6h17.67l-2.27,30.27-1.05,14.76c-.22,3.51.11,7.09,1,10.62.31,1.25,1.13,2.96,4.65,3.43.47.05.98.08,1.46.08,2.88,0,4.8-.96,6.07-3.01,1.04-1.66,1.77-3.67,2.2-5.99.45-2.25.91-9.12,1.38-20.46l1.5-29.69h17.69l-1.13,30.2v7.31c0,6.18-.49,11.75-1.44,16.56-1.25,5.95-3.52,10.87-6.78,14.63-5.11,5.84-12.68,8.79-22.51,8.79Z"/>
        <path class="cls-5" d="M578.01,16.24l-1.05,28.12v7.38c0,6.1-.47,11.49-1.41,16.17-1.18,5.62-3.29,10.2-6.33,13.71-4.73,5.4-11.73,8.1-21,8.1-.38,0-.76,0-1.15-.01-6.56-.24-11.13-1.52-13.71-3.87-2.81-2.58-4.57-6.68-5.27-12.3-.7-6.56-.47-16.4.7-29.53l2.81-27.77h13.71l-2.11,28.12-1.05,14.77c-.24,3.75.12,7.5,1.05,11.25.7,2.81,2.81,4.46,6.33,4.92.6.06,1.17.1,1.72.1,3.55,0,6.15-1.32,7.77-3.96,1.17-1.87,1.99-4.1,2.46-6.68.47-2.34.93-9.26,1.41-20.74l1.41-27.77h13.71M582.17,12.24h-21.67l-.19,3.8-1.41,27.77c-.58,14.04-1.04,18.71-1.33,20.16v.03s-.01.03-.01.03c-.38,2.07-1.03,3.85-1.92,5.28-.64,1.04-1.65,2.08-4.38,2.08-.39,0-.81-.02-1.24-.07-2.53-.35-2.78-1.33-2.92-1.92-.84-3.33-1.15-6.7-.94-10.03l1.05-14.73,2.11-28.11.32-4.3h-21.64l-.36,3.6-2.81,27.77c-1.2,13.35-1.43,23.55-.7,30.36v.03s0,.03,0,.03c.82,6.57,3.02,11.53,6.54,14.76,3.33,3.04,8.65,4.64,16.27,4.91h.03s.03,0,.03,0c.42,0,.83.01,1.25.01,10.43,0,18.51-3.18,24.01-9.47,3.49-4.04,5.92-9.25,7.23-15.53.99-4.98,1.49-10.68,1.49-16.99v-7.31l1.05-28.05.16-4.15h0Z"/>
      </g>
      <g>
        <path class="cls-4" d="M612.41,90.66l1.58-20.09c.46-5.8.7-10.72.7-14.61,0-4.53-1.01-5.11-1.02-5.11-.28-.08-.57-.12-.88-.12-.83,0-1.77.32-2.78.95-2.08,1.39-3.55,2.4-4.43,3.07-1.98,1.59-3.54,3.21-4.58,4.78-.65,3.58-1.09,7.62-1.3,12l-.78,19.13h-18.55l5.69-56.18,17.27,1.36-.21,3.41c4.47-2.84,8.79-4.28,12.86-4.28,5.45,0,9.47,1.26,11.96,3.75,2.62,2.63,4.23,5.47,4.77,8.44.49,2.7.74,6.25.74,10.56l-.75,32.94h-20.29Z"/>
        <path class="cls-5" d="M587.86,36.63l13.36,1.05-.35,5.62c5.39-4.22,10.43-6.33,15.12-6.33,4.92,0,8.44,1.05,10.55,3.16,2.34,2.35,3.75,4.81,4.22,7.38.47,2.58.7,5.98.7,10.2l-.7,30.94h-16.17l1.41-17.93c.47-5.86.7-10.78.7-14.77,0-4.22-.82-6.56-2.46-7.03-.47-.13-.95-.2-1.43-.2-1.22,0-2.5.42-3.84,1.25-2.11,1.41-3.64,2.46-4.57,3.16-2.35,1.88-4.1,3.75-5.27,5.62-.7,3.75-1.18,7.97-1.41,12.66l-.7,17.23h-14.41l5.27-52.03M584.27,32.34l-.39,3.89-5.27,52.03-.45,4.4h22.68l.16-3.84.7-17.23c.2-4.1.6-7.9,1.2-11.29.92-1.29,2.24-2.63,3.94-3.99.84-.63,2.28-1.62,4.28-2.96.48-.3.92-.49,1.3-.57.13.55.27,1.53.27,3.19,0,3.84-.23,8.7-.69,14.45l-1.41,17.93-.34,4.31h24.41l.09-3.91.7-30.94v-.05s0-.05,0-.05c0-4.48-.25-8.05-.77-10.91-.62-3.39-2.41-6.58-5.32-9.5-2.92-2.92-7.3-4.34-13.38-4.34-3.43,0-6.99.91-10.63,2.72l.11-1.7-3.92-.31-13.36-1.05-3.9-.31h0Z"/>
      </g>
      <g>
        <path class="cls-4" d="M633.89,91.02l3.41-55.77,6.31.31c-1.96-.39-3.57-1.2-4.79-2.42-2.02-2.01-3.05-4.62-3.05-7.74,0-3.82,1.03-6.78,3.05-8.8,2.02-2.02,4.75-3.05,8.09-3.05s5.95.91,7.74,2.7c2.02,2.03,3.05,4.87,3.05,8.45,0,3.35-1.03,6.07-3.05,8.09-1.74,1.74-4,2.74-6.73,2.99l7.72.38-1.51,54.88h-20.24Z"/>
        <path class="cls-5" d="M646.92,15.54c2.81,0,4.92.7,6.33,2.11,1.64,1.64,2.46,3.99,2.46,7.03,0,2.81-.82,5.04-2.46,6.68s-3.87,2.46-6.68,2.46-4.92-.7-6.33-2.11c-1.64-1.64-2.46-3.75-2.46-6.33,0-3.28.82-5.74,2.46-7.38s3.87-2.46,6.68-2.46M639.18,37.34l14.41.7-1.41,50.98h-16.17l3.16-51.68M646.92,11.54c-3.9,0-7.1,1.22-9.51,3.63-2.41,2.41-3.63,5.85-3.63,10.21,0,3.02.82,5.63,2.46,7.8l-.8-.04-.24,3.94-3.16,51.68-.26,4.24h24.32l.11-3.89,1.41-50.98.11-3.91-1.6-.08c2.39-2.41,3.6-5.6,3.6-9.48,0-4.12-1.22-7.44-3.63-9.85-2.18-2.18-5.26-3.29-9.16-3.29h0Z"/>
      </g>
      <g>
        <path class="cls-4" d="M657.16,35.86l18.07-1.35,5,23.24,9.68-23.18,19.78.9-1.17,2.67c-5.13,11.65-9.01,21.07-11.55,28.01-1.87,4.67-4.45,12.31-7.7,22.76l-.43,1.38-20.33.42-11.34-54.83Z"/>
        <path class="cls-5" d="M691.22,36.63l15.47.7c-5.16,11.72-9.03,21.09-11.6,28.12-1.88,4.69-4.46,12.3-7.73,22.85l-17.23.35-10.55-50.98,14.06-1.05,5.98,27.77,11.6-27.77M676.81,32.38l-3.48.26-14.06,1.05-4.54.34.92,4.46,10.55,50.98.67,3.26,3.32-.07,17.23-.35,2.88-.06.86-2.75c3.23-10.4,5.8-17.99,7.63-22.55l.02-.06.02-.06c2.53-6.9,6.4-16.28,11.51-27.89l2.35-5.34-5.83-.27-15.47-.7-2.79-.13-1.08,2.58-6.68,16-3.29-15.3-.73-3.41h0Z"/>
      </g>
      <g>
        <path class="cls-4" d="M729.29,91.76c-1.5,0-3.08-.14-4.68-.43-4.64-.77-8.34-2.64-10.98-5.55-2.62-2.88-4.21-6.56-4.72-10.95-.73-5.07-.72-9.56.03-13.28,1.96-9.78,5.49-16.9,10.51-21.17,3.53-3.02,7.39-4.95,11.47-5.72,1.57-.27,3.07-.41,4.5-.41,4.03,0,7.63,1.07,10.71,3.19,5.25,3.68,7.9,9.08,7.9,16.06,0,4.65-.74,9.24-2.21,13.64l-.43,1.29-7.83.41,7.87,8.36-.9,1.33c-4.22,6.2-8.93,10.24-14,12.01-2.25.8-4.69,1.21-7.23,1.21ZM724.96,69.83c-.11,1.44.06,2.8.5,4.14.51,1.54,1.36,2.49,2.67,2.98,1,.42,1.92.61,2.88.61h0c1.35,0,2.79-.4,4.26-1.2l.08-.04.08-.03c.75-.32,2.56-1.54,6.27-6.1l1.04-1.28-17.78.94ZM733.84,47.25c-1.5,0-2.95,1.25-4.31,3.72-.48.84-1.18,2.48-2.02,5.75l9.4-.24c.31-2.76.25-4.31.14-5.15v-.11c-.18-2-.72-3.22-1.62-3.6-.57-.24-1.1-.36-1.59-.36Z"/>
        <path class="cls-5" d="M735.43,36.26c3.63,0,6.83.94,9.58,2.83,4.69,3.29,7.03,8.09,7.03,14.41,0,4.46-.7,8.79-2.11,13.01l-26.72,1.41c-.47,2.35-.35,4.57.35,6.68s1.99,3.52,3.87,4.22c1.17.49,2.36.73,3.58.73,1.7,0,3.43-.48,5.21-1.44,1.64-.7,3.98-2.93,7.03-6.68l5.62,5.98c-3.99,5.86-8.32,9.61-13.01,11.25-2.05.73-4.24,1.1-6.57,1.1-1.39,0-2.84-.13-4.33-.39-4.22-.7-7.5-2.34-9.84-4.92-2.35-2.58-3.75-5.86-4.22-9.84-.7-4.92-.7-9.14,0-12.66,1.87-9.37,5.15-16.05,9.84-20.04,3.28-2.81,6.79-4.57,10.55-5.27,1.44-.25,2.81-.37,4.13-.37M724.97,58.78l13.71-.35c.47-3.28.58-5.74.35-7.38-.24-2.81-1.18-4.57-2.81-5.27-.82-.35-1.61-.53-2.38-.53-2.29,0-4.31,1.58-6.06,4.75-.94,1.64-1.88,4.57-2.81,8.79M735.43,32.26h0c-1.54,0-3.16.15-4.81.43h-.03s-.03,0-.03,0c-4.43.83-8.61,2.91-12.41,6.17-5.36,4.55-9.12,12.06-11.16,22.29-.79,3.93-.8,8.63-.04,13.96.57,4.79,2.33,8.84,5.23,12.02,2.94,3.24,7.03,5.32,12.14,6.17,1.68.3,3.37.45,4.99.45,2.77,0,5.43-.45,7.91-1.33,5.46-1.91,10.51-6.21,14.97-12.77l1.81-2.65-2.2-2.34-3.81-4.05,2.16-.11,2.72-.14.86-2.59c1.54-4.61,2.31-9.41,2.31-14.27,0-7.67-2.94-13.63-8.73-17.69-3.45-2.37-7.43-3.56-11.88-3.56h0ZM730.18,54.65c.47-1.48.84-2.26,1.07-2.67v-.02s.03-.02.03-.02c.92-1.66,1.9-2.69,2.56-2.69.19,0,.45.06.73.17.08.13.36.65.47,1.96v.11s.02.11.02.11c.06.46.12,1.35.02,2.92l-4.91.13h0ZM726.99,71.73l11.27-.59c-2.46,2.75-3.49,3.25-3.62,3.31l-.16.07-.16.08c-1.18.64-2.3.96-3.32.96-.68,0-1.35-.14-2.03-.43l-.07-.03-.07-.03c-.53-.2-1.08-.55-1.47-1.74-.18-.53-.3-1.06-.37-1.61h0Z"/>
      </g>
      <g>
        <path class="cls-4" d="M759.34,34.98h17.79l-.94,7.95c1.04-1.07,2.03-2.03,2.98-2.87,3.57-3.31,7.05-5.15,10.3-5.42.33-.03.67-.05,1.02-.05,2.52,0,4.72.92,6.54,2.74,2.22,2.23,3.48,5.5,3.75,9.73.25,3.52-.34,8.21-1.81,14.3l-.38,1.57-17.96-.46.77-2.52c.63-2.05.73-3.17.72-3.73-.31.22-.8.63-1.49,1.38l-6.61,8.59-1.48,24.03-18.14.91,4.93-56.14Z"/>
        <path class="cls-5" d="M790.5,36.59c1.98,0,3.69.72,5.13,2.15,1.87,1.88,2.93,4.69,3.16,8.44.23,3.29-.35,7.86-1.76,13.71l-13.71-.35c.93-3.04,1.05-5.04.35-5.98-.31-.39-.69-.58-1.13-.58-.89,0-2.03.78-3.44,2.34l-7.03,9.14-1.41,22.85-14.06.7,4.57-52.03h13.71l-1.41,11.95c2.58-3.04,4.92-5.5,7.03-7.38,3.28-3.04,6.33-4.69,9.14-4.92.29-.03.57-.04.85-.04M790.5,32.59c-.4,0-.81.02-1.22.06-3.43.3-6.86,1.95-10.46,5.04l.03-.24.53-4.47h-21.87l-.32,3.65-4.57,52.03-.4,4.57,4.59-.23,14.06-.7,3.57-.18.22-3.57,1.33-21.63,1.98-2.57v.04s5.25.14,5.25.14l13.71.35,3.24.08.76-3.15c1.51-6.3,2.12-11.18,1.86-14.92-.3-4.7-1.75-8.4-4.32-10.98-2.19-2.18-4.94-3.33-7.96-3.33h0Z"/>
      </g>
      <g>
        <path class="cls-4" d="M821.65,91.37c-4.58,0-10.99-.84-19.04-2.5l-2.03-.42,4.21-17.3,2.16.9c2.73,1.14,5.73,2.18,8.92,3.09l.1.03.1.04c.68.27,2.05.66,4.72.92.28.03.49.05.69.05.46,0,.72-.07.78-.21.17-.39.55-1.28-.91-3.04-1.58-1.13-3.16-2.25-4.73-3.38-5.33-3.81-8.55-8.36-9.58-13.54-1.31-6.28.17-11.62,4.42-15.87,2.62-2.62,6.76-4.47,12.31-5.48,1.82-.32,3.63-.48,5.41-.48,2.37,0,4.74.29,7.04.86,5.4,1.36,8.84,4.42,10.22,9.11.81,2.72.71,5.95-.34,9.87l-.41,1.53-16.62-.45.09-2.03c.16-3.64-.59-4.98-1.05-5.46-.22-.23-.62-.54-1.52-.54-.7,0-2.33,0-2.57,4.44-.21,2.32,2.48,4.72,4.78,6.34,4.15,2.93,7.02,5.33,8.79,7.35,4.45,4.97,5.77,10.59,3.93,16.67-1.14,3.7-4.3,6.4-9.4,8.01-2.99.99-6.51,1.5-10.45,1.5Z"/>
        <path class="cls-5" d="M829.15,36.18c2.22,0,4.41.27,6.55.8,4.69,1.18,7.61,3.75,8.79,7.73.7,2.35.58,5.27-.35,8.79l-13.01-.35c.23-5.39-1.29-8.09-4.57-8.09-2.81,0-4.34,2.11-4.57,6.33-.24,2.58,1.64,5.27,5.62,8.09,3.98,2.81,6.79,5.16,8.44,7.03,3.98,4.46,5.15,9.38,3.52,14.77-.94,3.05-3.64,5.27-8.09,6.68-2.81.93-6.1,1.41-9.84,1.41-4.46,0-10.67-.82-18.63-2.46l3.16-13.01c2.81,1.18,5.86,2.23,9.14,3.16,1.17.47,2.93.82,5.27,1.05.31.04.61.06.88.06,1.36,0,2.24-.49,2.63-1.47.7-1.64.23-3.39-1.41-5.27-1.64-1.17-3.29-2.34-4.92-3.52-4.92-3.52-7.86-7.61-8.79-12.3-1.18-5.62.12-10.31,3.87-14.06,2.34-2.34,6.09-3.98,11.25-4.92,1.7-.3,3.39-.45,5.05-.45M829.15,32.18c-1.89,0-3.82.17-5.74.51-6.05,1.1-10.43,3.07-13.38,6.03-4.68,4.68-6.4,10.81-4.95,17.71,1.12,5.65,4.62,10.63,10.38,14.74,1.28.92,2.57,1.84,3.86,2.76-1.42-.21-2.15-.44-2.49-.58l-.2-.08-.21-.06c-3.11-.88-6.03-1.89-8.69-3.01l-4.32-1.81-1.11,4.55-3.16,13.01-.98,4.03,4.06.84c8.3,1.71,14.66,2.54,19.44,2.54,4.14,0,7.86-.54,11.08-1.6,5.74-1.82,9.33-4.95,10.68-9.31,2.04-6.71.53-13.14-4.36-18.61-1.65-1.88-4.22-4.09-7.79-6.69l12.79.35,3.16.09.81-3.06c1.14-4.29,1.24-7.88.32-10.96-1.09-3.71-4.01-8.55-11.65-10.47-2.46-.61-4.99-.92-7.53-.92h0ZM826.51,49.07s.04,0,.06,0c.05,0,.09,0,.12,0,.15.28.56,1.3.45,3.91l-.04.82c-.9-.99-1.16-1.7-1.13-2.05v-.07s.01-.07.01-.07c.09-1.61.39-2.31.52-2.55h0Z"/>
      </g>
      <g>
        <path class="cls-4" d="M861.79,91.43c-3.78,0-7.25-1.65-10.31-4.92-2.47-2.74-3.71-6.97-3.71-12.62,0-4.6,1.3-8.88,3.85-12.71,3.38-5.07,7.76-8.15,13.03-9.14l-9.17-8.07,1.79-1.5c4.44-3.7,7.62-5.88,9.72-6.66,2.82-1.13,5.66-1.71,8.41-1.71.92,0,1.85.07,2.76.19,5.26.79,9.27,3.21,11.93,7.2,1.34,2.15,2.26,4.89,2.77,8.19.48,3.41.61,7.67.37,12.71l-1.51,27.49-20.54.91,1.09-3.28c-2.77,1.8-5.05,2.93-6.89,3.43-1.24.33-2.45.49-3.62.49ZM872.62,66.41c-.22,0-1.1.09-3.33,1.2-2.23,1.11-3.48,2.7-3.84,4.87-.18,1.43.27,2,.68,2.32.31.23.72.36,1.26.36h0c.21,0,.44-.02.68-.06,1.66-.21,3.27-.82,4.9-1.83,3.93-2.22,3.29-4.04,2.82-5.08-.8-1.23-1.78-1.77-3.16-1.77ZM870.25,51.96c1.05.14,2.14.37,3.25.67,1.21.35,2.5,1,3.9,1.99.34-3.46.13-4.66,0-5.05-.17-.44-.38-.67-1.13-.67-.38,0-.84.07-1.37.22-.76.22-2.18.91-4.66,2.85Z"/>
        <path class="cls-5" d="M875.41,36.11c.83,0,1.66.06,2.48.17,4.69.7,8.2,2.81,10.55,6.33,1.17,1.88,1.99,4.34,2.46,7.38.47,3.29.58,7.38.35,12.3l-1.41,25.66-15.82.7,2.11-6.33c-4.92,3.75-8.67,5.98-11.25,6.68-1.06.28-2.09.42-3.1.42-3.23,0-6.18-1.43-8.86-4.28-2.11-2.34-3.16-6.09-3.16-11.25,0-4.22,1.17-8.09,3.52-11.6,3.28-4.92,7.5-7.73,12.66-8.44.53-.06,1.07-.09,1.62-.09,1.67,0,3.47.26,5.41.79,1.64.47,3.63,1.76,5.98,3.87.7-4.92.82-8.09.35-9.49-.51-1.36-1.52-2.05-3.02-2.05-.56,0-1.2.1-1.9.29-1.64.47-3.99,1.99-7.03,4.57l-8.79-7.73c4.22-3.52,7.26-5.62,9.14-6.33,2.64-1.05,5.21-1.58,7.71-1.58M867.39,77.15c.32,0,.66-.03,1.01-.09,1.87-.23,3.75-.93,5.62-2.11,3.75-2.11,4.92-4.69,3.52-7.73-1.18-1.87-2.81-2.81-4.92-2.81-.94,0-2.35.47-4.22,1.41-2.81,1.41-4.46,3.52-4.92,6.33-.24,1.88.23,3.29,1.41,4.22.7.53,1.54.79,2.5.79M875.41,32.11c-2.99,0-6.07.62-9.16,1.85-1.49.56-4.17,1.92-10.26,6.98l-3.59,2.99,3.51,3.09,4.67,4.11c-4.19,1.63-7.75,4.63-10.63,8.95-2.78,4.16-4.19,8.81-4.19,13.82,0,6.24,1.37,10.8,4.19,13.93l.03.03.03.03c3.45,3.68,7.42,5.55,11.77,5.55,1.34,0,2.73-.18,4.11-.55.88-.24,1.83-.6,2.86-1.08l-.37,1.11,5.81-.26,15.82-.7,3.62-.16.2-3.62,1.41-25.66c.25-5.26.12-9.53-.39-13.09v-.03s0-.03,0-.03c-.56-3.62-1.55-6.52-3.02-8.88l-.03-.05-.03-.05c-2.99-4.48-7.46-7.19-13.28-8.06-1.03-.15-2.06-.22-3.08-.22h0ZM875.46,51.03s.08-.02.12-.03c0,.08,0,.17,0,.27-.12-.05-.24-.11-.36-.16.1-.04.18-.07.24-.09h0ZM867.44,72.71c.18-1.01.68-2.29,2.75-3.32,1.66-.83,2.35-.96,2.48-.98.54,0,.92.14,1.35.73.2.53.14,1.16-1.95,2.33l-.08.05-.08.05c-1.37.86-2.71,1.37-3.99,1.53h-.09s-.09.03-.09.03c-.12.02-.22.03-.32.03,0-.1,0-.24.02-.44h0Z"/>
      </g>
      <g>
        <path class="cls-4" d="M893.71,90.66l4.46-76.98,17.73,1.82-.15,1.94c-1.17,15.37-1.88,26.23-2.1,32.27-.23,6.26-.23,19.36,0,38.92l.02,2.02h-19.96Z"/>
        <path class="cls-5" d="M900.04,15.89l13.71,1.41c-1.18,15.47-1.88,26.25-2.11,32.34-.24,6.33-.24,19.34,0,39.02h-15.82l4.22-72.77M896.29,11.48l-.24,4.17-4.22,72.77-.25,4.23h24.11l-.05-4.05c-.23-19.53-.24-32.59,0-38.83.23-6.01.93-16.85,2.1-32.19l.3-3.88-3.88-.4-13.71-1.41-4.16-.43h0Z"/>
      </g>
    </g>
  </g>
  <g class="cls-6">
    <g>
      <g>
        <path class="cls-4" d="M974.98,91.02l-1.37-15.77-17.3,3.52-2.89,11.93-20.66-.44.63-2.45c1.64-6.35,4.18-15,7.76-26.46,3.29-10.58,9.11-25.55,17.3-44.49l.41-.95,1.01-.22c3.28-.7,5.81-1.18,7.52-1.43.91-.13,1.92-.19,3.01-.19s2.22.06,3.45.18c3.58.3,6.39,2.84,8.33,7.56,1.46,3.41,3.11,9.99,5.04,20.08l8.87,49.13h-21.1ZM961.96,59.52l9.09-.23c-.58-4.71-1.08-8.45-1.48-11.11-.4-2.14-.98-4.79-1.73-7.93l-5.88,19.27Z"/>
        <path class="cls-5" d="M970.4,16.07c1,0,2.08.06,3.25.17,2.81.24,5.04,2.35,6.68,6.33,1.41,3.29,3.04,9.84,4.92,19.69l8.44,46.76h-16.88l-1.41-16.17-20.74,4.22-2.81,11.6-16.52-.35c1.64-6.33,4.22-15.12,7.73-26.37,3.28-10.55,9.02-25.31,17.23-44.3,3.28-.7,5.74-1.17,7.38-1.41.82-.12,1.73-.17,2.72-.17M959.24,61.59l14.06-.35c-.7-5.86-1.29-10.31-1.76-13.36-.7-3.75-1.88-8.79-3.52-15.12l-8.79,28.83M970.4,12.07c-1.18,0-2.28.07-3.28.21-1.76.25-4.34.74-7.66,1.46l-2.02.43-.82,1.89c-8.22,19.01-14.06,34.05-17.37,44.7-3.59,11.49-6.14,20.17-7.79,26.55l-1.27,4.89,5.05.11,16.52.35,3.21.07.76-3.13,2.21-9.13,13.86-2.82,1.02,11.71.32,3.65h25.33l-.85-4.71-8.44-46.76c-1.96-10.25-3.64-16.95-5.17-20.53-2.8-6.76-6.98-8.5-10-8.76-1.29-.13-2.5-.19-3.62-.19h0ZM964.68,57.46l2.84-9.31c.03.14.05.28.08.41.34,2.21.74,5.16,1.19,8.8l-4.11.1h0Z"/>
      </g>
      <g>
        <path class="cls-4" d="M1000.29,34.98h17.79l-.94,7.95c1.04-1.07,2.03-2.03,2.98-2.87,3.57-3.31,7.05-5.15,10.3-5.42.33-.03.67-.05,1.02-.05,2.52,0,4.72.92,6.54,2.74,2.22,2.23,3.48,5.5,3.75,9.73.25,3.52-.34,8.21-1.81,14.3l-.38,1.57-17.96-.46.77-2.52c.63-2.05.73-3.17.72-3.73-.31.22-.8.63-1.49,1.38l-6.61,8.59-1.48,24.03-18.14.91,4.93-56.14Z"/>
        <path class="cls-5" d="M1031.45,36.59c1.98,0,3.69.72,5.13,2.15,1.87,1.88,2.93,4.69,3.16,8.44.23,3.29-.35,7.86-1.76,13.71l-13.71-.35c.93-3.04,1.05-5.04.35-5.98-.31-.39-.69-.58-1.13-.58-.89,0-2.03.78-3.44,2.34l-7.03,9.14-1.41,22.85-14.06.7,4.57-52.03h13.71l-1.41,11.95c2.58-3.04,4.92-5.5,7.03-7.38,3.28-3.04,6.33-4.69,9.14-4.92.29-.03.57-.04.85-.04M1031.45,32.59c-.4,0-.81.02-1.22.06-3.43.3-6.86,1.95-10.46,5.04l.03-.24.53-4.47h-21.87l-.32,3.65-4.57,52.03-.4,4.57,4.59-.23,14.06-.7,3.57-.18.22-3.57,1.33-21.63,1.98-2.57v.04s5.25.14,5.25.14l13.71.35,3.24.08.76-3.15c1.51-6.3,2.12-11.18,1.86-14.92-.3-4.7-1.75-8.4-4.32-10.98-2.19-2.18-4.94-3.33-7.96-3.33h0Z"/>
      </g>
      <g>
        <path class="cls-4" d="M1046.7,34.98h17.79l-.94,7.95c1.04-1.07,2.03-2.03,2.98-2.87,3.57-3.31,7.05-5.15,10.3-5.42.33-.03.67-.05,1.02-.05,2.52,0,4.72.92,6.54,2.74,2.22,2.23,3.48,5.5,3.75,9.73.25,3.52-.34,8.21-1.81,14.3l-.38,1.57-17.96-.46.77-2.52c.63-2.05.73-3.17.72-3.73-.31.22-.8.63-1.49,1.38l-6.61,8.59-1.48,24.03-18.14.91,4.93-56.14Z"/>
        <path class="cls-5" d="M1077.86,36.59c1.98,0,3.69.72,5.13,2.15,1.87,1.88,2.93,4.69,3.16,8.44.23,3.29-.35,7.86-1.76,13.71l-13.71-.35c.93-3.04,1.05-5.04.35-5.98-.31-.39-.69-.58-1.13-.58-.89,0-2.03.78-3.44,2.34l-7.03,9.14-1.41,22.85-14.06.7,4.57-52.03h13.71l-1.41,11.95c2.58-3.04,4.92-5.5,7.03-7.38,3.28-3.04,6.33-4.69,9.14-4.92.29-.03.57-.04.85-.04M1077.86,32.59c-.4,0-.81.02-1.22.06-3.43.3-6.86,1.95-10.46,5.04l.03-.24.53-4.47h-21.87l-.32,3.65-4.57,52.03-.4,4.57,4.59-.23,14.06-.7,3.57-.18.22-3.57,1.33-21.63,1.98-2.57v.04s5.25.14,5.25.14l13.71.35,3.24.08.76-3.15c1.51-6.3,2.12-11.18,1.86-14.92-.3-4.7-1.75-8.4-4.32-10.98-2.19-2.18-4.94-3.33-7.96-3.33h0Z"/>
      </g>
      <g>
        <path class="cls-4" d="M1110.34,91.92c-1.14,0-2.27-.07-3.36-.22-6.4-.77-11.24-3.41-14.38-7.86-3.35-4.64-4.62-11.4-3.87-20.65.74-8.39,3.63-15.41,8.6-20.87,4.33-4.84,10.37-7.43,17.94-7.68.5-.02,1.01-.03,1.51-.03,10.44,0,17.11,5,19.82,14.86,1.24,5.21,1.49,10.77.76,16.6-.74,5.67-2.5,10.68-5.23,14.9-3.33,4.86-7.59,8.08-12.71,9.62-3.22.89-6.26,1.34-9.08,1.34ZM1114.47,48.36c-1.41,0-2.67.8-3.84,2.44-3.22,4.5-4.51,10.68-3.85,18.35.4,5.4,1.8,8.47,4.18,9.15.45.13.87.19,1.27.19h0c.63,0,2.51-.01,4.5-3.77.72-1.3,1.68-4.27,2.24-11.18.22-3.6.22-7.06,0-10.25-.27-3.43-1.62-4.11-2.07-4.33-.85-.39-1.68-.61-2.42-.61Z"/>
        <path class="cls-5" d="M1116.77,36.6c9.47,0,15.44,4.47,17.9,13.39,1.17,4.92,1.41,10.2.7,15.82-.7,5.39-2.35,10.08-4.92,14.06-3.05,4.46-6.92,7.38-11.6,8.79-3.02.84-5.85,1.25-8.51,1.25-1.06,0-2.09-.07-3.09-.2-5.86-.7-10.2-3.04-13.01-7.03-3.05-4.22-4.22-10.66-3.52-19.34.7-7.96,3.39-14.53,8.09-19.69,3.98-4.45,9.49-6.79,16.52-7.03.49-.02.97-.03,1.44-.03M1112.22,80.5c2.47,0,4.57-1.61,6.27-4.84,1.17-2.11,1.99-6.09,2.46-11.95.23-3.75.23-7.26,0-10.55-.24-3.04-1.29-5.04-3.16-5.98-1.17-.55-2.28-.82-3.32-.82-2.08,0-3.91,1.09-5.47,3.28-3.52,4.92-4.92,11.49-4.22,19.69.47,6.33,2.34,9.96,5.62,10.9.63.18,1.23.27,1.81.27M1116.77,32.6h0c-.53,0-1.08.01-1.62.04-8.08.27-14.6,3.08-19.32,8.36-5.25,5.77-8.31,13.18-9.09,22-.79,9.77.6,16.97,4.26,22.03,3.45,4.89,8.75,7.81,15.75,8.66,1.16.15,2.37.23,3.59.23,3.01,0,6.23-.47,9.58-1.4h.04s.04-.02.04-.02c5.56-1.67,10.19-5.16,13.75-10.36l.03-.04.03-.04c2.89-4.47,4.75-9.76,5.53-15.72.76-6.09.5-11.89-.78-17.26l-.02-.07-.02-.07c-2.94-10.68-10.46-16.33-21.75-16.33h0ZM1112.22,76.5c-.21,0-.45-.04-.71-.11-1.41-.4-2.43-3.15-2.74-7.35-.62-7.24.55-12.96,3.48-17.07,1.14-1.6,1.92-1.6,2.21-1.6.43,0,.96.14,1.56.41.69.39.88,2.01.94,2.69.21,3.05.21,6.41,0,9.95-.56,6.87-1.47,9.4-1.97,10.3l-.02.03-.02.04c-.65,1.24-1.66,2.71-2.74,2.71h0Z"/>
      </g>
      <g>
        <path class="cls-4" d="M1142.68,90.63l-4.92-53.32,17.69-1.81,1.77,19.47,6.58-19.98h8.48c5.45,0,8.78,2.75,9.37,7.74l.7,8.18,1.08-2.71,4.66-13.21h16.67l-14.77,56.03h-18.81l-2.06-19.02-6.7,19.05-19.76-.42Z"/>
        <path class="cls-5" d="M1202.17,36.98l-13.71,52.03h-15.47l-2.81-26.02-9.14,26.02-16.52-.35-4.57-49.57,13.71-1.41,2.46,27.07,9.14-27.77h7.03c4.45,0,6.91,1.99,7.38,5.98l1.41,16.52,4.22-10.55,4.22-11.95h12.66M1207.36,32.98h-20.68l-.94,2.67-2.19,6.2c-.92-5.65-5-8.87-11.27-8.87h-9.93l-.9,2.75-3.11,9.44-.71-7.84-.37-4.03-4.03.41-13.71,1.41-3.94.4.36,3.94,4.57,49.57.33,3.56,3.57.08,16.52.35,2.9.06.96-2.73,3.29-9.36.91,8.46.39,3.57h22.14l.79-2.98,13.71-52.03,1.32-5.02h0Z"/>
      </g>
    </g>
  </g>
  <g class="cls-6">
    <g>
      <g>
        <polygon class="cls-4" points="464.83 58.58 460.18 61.84 455.7 51.08 461.17 48.25 456.27 32.72 466.81 28.64 471.62 42.99 477.13 40.36 481.16 48.77 475.16 52.06 481.88 67.88 470.8 73.17 464.83 58.58"/>
        <path class="cls-5" d="M465.58,31.26l4.86,14.51,5.75-2.75,2.35,4.91-5.93,3.25,6.68,15.72-7.44,3.56-6.11-14.95-4.67,3.27-2.81-6.76,5.33-2.76-4.84-15.35,6.84-2.65M468.05,26.02l-3.91,1.51-6.84,2.65-3.5,1.35,1.13,3.58,3.83,12.14-2.34,1.21-3.27,1.69,1.42,3.4,2.81,6.76,1.91,4.59,4.07-2.85.57-.4,4.21,10.32,1.6,3.92,3.82-1.83,7.44-3.56,3.45-1.65-1.5-3.52-5.27-12.39,2.75-1.51,3.32-1.82-1.63-3.41-2.35-4.91-1.73-3.61-3.61,1.72-1.67.8-3.42-10.22-1.33-3.97h0Z"/>
      </g>
      <g>
        <path class="cls-4" d="M492.78,62.16c-1.82,0-3.54-.44-5.1-1.32-2.87-1.57-5.18-4.69-7.03-9.53-1.65-4.41-1.88-8.65-.68-12.62,1.04-3.57,3.51-6.4,7.33-8.38,2.2-1.18,4.35-1.78,6.38-1.78,3.16,0,6,1.42,8.43,4.22,1.88,2.33,3.34,5.05,4.36,8.13.99,3.04,1.31,5.99.95,8.79-.52,3.35-1.93,6.06-4.2,8.12-1.99,1.73-4.02,2.93-6.07,3.6-1.5.51-2.98.77-4.37.77ZM491.8,38.59c-.95.02-1.45.26-1.67,1.55-.47,2.68.29,5.74,2.25,9.08,1.08,1.89,2.19,3.01,2.98,3.01.06,0,.11,0,.17-.02.41-.07,1.1-.18,1.18-2.17.04-.6-.11-2.05-1.44-5.52-.7-1.73-1.48-3.36-2.3-4.8-.23-.41-.71-1.11-1.18-1.13Z"/>
        <path class="cls-5" d="M493.67,30.53c2.57,0,4.88,1.18,6.92,3.53,1.69,2.1,3.02,4.58,3.98,7.45.9,2.76,1.19,5.39.87,7.9-.44,2.85-1.63,5.14-3.56,6.9-1.76,1.53-3.54,2.59-5.34,3.18-1.32.45-2.57.67-3.75.67-1.49,0-2.86-.35-4.12-1.06-2.44-1.33-4.48-4.16-6.14-8.5-1.49-3.99-1.71-7.77-.64-11.33.89-3.06,3.01-5.45,6.33-7.18,1.93-1.03,3.75-1.55,5.46-1.55M495.36,54.24c.17,0,.34-.01.51-.04,1.79-.3,2.74-1.65,2.84-4.06.08-1.28-.44-3.39-1.56-6.32-.75-1.86-1.56-3.55-2.43-5.08-.81-1.41-1.78-2.13-2.9-2.15-2.07.02-3.29,1.09-3.66,3.21-.56,3.18.27,6.66,2.5,10.44,1.52,2.66,3.09,3.99,4.71,3.99M493.67,26.53h0c-2.36,0-4.83.68-7.34,2.02-4.28,2.23-7.08,5.46-8.29,9.59-1.31,4.37-1.07,9.04.73,13.86,2.04,5.33,4.64,8.79,7.97,10.61,1.82,1.02,3.87,1.55,6.04,1.55,1.61,0,3.31-.3,5.04-.88,2.26-.73,4.53-2.07,6.68-3.95l.03-.03.03-.03c2.62-2.38,4.24-5.49,4.83-9.25v-.05s.01-.05.01-.05c.4-3.09.05-6.34-1.03-9.65-1.11-3.33-2.68-6.25-4.67-8.72l-.04-.06-.05-.05c-3.52-4.06-7.35-4.91-9.94-4.91h0ZM494.6,49.03c-.15-.22-.3-.47-.47-.77-1.33-2.26-2.03-4.3-2.13-6.12.49.97.97,2.03,1.42,3.14.71,1.87,1.03,3.05,1.18,3.74h0Z"/>
      </g>
    </g>
  </g>
  <text class="cls-1" transform="translate(46.61 170.34) rotate(-36.1)"><tspan x="0" y="0">W</tspan></text>
  <text class="cls-1" transform="translate(93.72 132.13) rotate(-26.44)"><tspan x="0" y="0">E</tspan></text>
  <text class="cls-1" transform="translate(132.82 109.99) rotate(-3.31)"><tspan x="0" y="0">L</tspan></text>
  <text class="cls-1" transform="translate(179.39 109.45) rotate(-3.41)"><tspan x="0" y="0">C</tspan></text>
  <text class="cls-1" transform="translate(236.47 102.86) rotate(-4.63)"><tspan x="0" y="0">O</tspan></text>
  <text class="cls-1" transform="translate(290.6 101.67) rotate(-2.11)"><tspan x="0" y="0">M</tspan></text>
  <text class="cls-1" transform="translate(369.56 94.92) rotate(-20.42)"><tspan x="0" y="0">E</tspan></text>
  <text class="cls-1" transform="translate(418.34 80.19) rotate(-8.81)"><tspan x="0" y="0">!</tspan></text>
  <text class="cls-3" transform="translate(524.84 88.84)"><tspan x="0" y="0">Universal</tspan></text>
  <text class="cls-3" transform="translate(933.49 88.84)"><tspan x="0" y="0">Arrow</tspan></text>
  <text class="cls-2" transform="translate(467.02 73.26) rotate(-26.37)"><tspan x="0" y="0">to</tspan></text>
</svg>